<svg width="1526" height="247" viewBox="0 0 1526 247" fill="none" xmlns="http://www.w3.org/2000/svg">
<g clip-path="url(#clip0_42_42)">
<path d="M270.291 207.36C260.957 207.36 252.557 205.68 245.091 202.32C237.624 198.96 231.744 194.293 227.451 188.32C223.157 182.16 221.011 175.067 221.011 167.04C221.011 154.347 224.744 144.547 232.211 137.64C239.864 130.547 251.811 125.413 268.051 122.24L317.891 112.16C317.891 99.4667 314.997 90.04 309.211 83.88C303.611 77.72 295.491 74.64 284.851 74.64C274.584 74.64 266.557 76.9733 260.771 81.64C254.984 86.12 250.971 92.6533 248.731 101.24L223.811 99.28C226.611 85.28 233.237 73.9867 243.691 65.4C254.331 56.6267 268.051 52.24 284.851 52.24C302.771 52.24 316.677 57.6533 326.571 68.48C336.464 79.12 341.411 93.8667 341.411 112.72V174.32C341.411 177.68 342.157 180.013 343.651 181.32C345.144 182.627 347.384 183.28 350.371 183.28H359.891V204C358.771 204.187 356.997 204.28 354.571 204.28C352.144 204.467 349.811 204.56 347.571 204.56C341.224 204.56 335.811 203.533 331.331 201.48C327.037 199.427 323.771 196.16 321.531 191.68C319.291 187.013 318.077 181.04 317.891 173.76H322.371C321.064 180.107 317.891 185.893 312.851 191.12C307.997 196.16 301.837 200.173 294.371 203.16C286.904 205.96 278.877 207.36 270.291 207.36ZM272.531 186.64C282.611 186.64 291.011 184.96 297.731 181.6C304.451 178.053 309.491 173.2 312.851 167.04C316.211 160.693 317.891 153.413 317.891 145.2V132.32L272.531 141.28C262.451 143.147 255.451 146.04 251.531 149.96C247.611 153.693 245.651 158.64 245.651 164.8C245.651 171.707 247.984 177.12 252.651 181.04C257.504 184.773 264.131 186.64 272.531 186.64ZM479.621 204C465.248 204 454.515 200.64 447.421 193.92C440.328 187.2 436.781 176.933 436.781 163.12V20.88H460.301V163.12C460.301 170.027 461.888 175.16 465.061 178.52C468.235 181.693 473.088 183.28 479.621 183.28H519.381V204H479.621ZM387.781 76.32V55.6H519.381V76.32H387.781ZM606.072 207.36C596.739 207.36 588.339 205.68 580.872 202.32C573.405 198.96 567.525 194.293 563.232 188.32C558.939 182.16 556.792 175.067 556.792 167.04C556.792 154.347 560.525 144.547 567.992 137.64C575.645 130.547 587.592 125.413 603.832 122.24L653.672 112.16C653.672 99.4667 650.779 90.04 644.992 83.88C639.392 77.72 631.272 74.64 620.632 74.64C610.365 74.64 602.339 76.9733 596.552 81.64C590.765 86.12 586.752 92.6533 584.512 101.24L559.592 99.28C562.392 85.28 569.019 73.9867 579.472 65.4C590.112 56.6267 603.832 52.24 620.632 52.24C638.552 52.24 652.459 57.6533 662.352 68.48C672.245 79.12 677.192 93.8667 677.192 112.72V174.32C677.192 177.68 677.939 180.013 679.432 181.32C680.925 182.627 683.165 183.28 686.152 183.28H695.672V204C694.552 204.187 692.779 204.28 690.352 204.28C687.925 204.467 685.592 204.56 683.352 204.56C677.005 204.56 671.592 203.533 667.112 201.48C662.819 199.427 659.552 196.16 657.312 191.68C655.072 187.013 653.859 181.04 653.672 173.76H658.152C656.845 180.107 653.672 185.893 648.632 191.12C643.779 196.16 637.619 200.173 630.152 203.16C622.685 205.96 614.659 207.36 606.072 207.36ZM608.312 186.64C618.392 186.64 626.792 184.96 633.512 181.6C640.232 178.053 645.272 173.2 648.632 167.04C651.992 160.693 653.672 153.413 653.672 145.2V132.32L608.312 141.28C598.232 143.147 591.232 146.04 587.312 149.96C583.392 153.693 581.432 158.64 581.432 164.8C581.432 171.707 583.765 177.12 588.432 181.04C593.285 184.773 599.912 186.64 608.312 186.64ZM796.643 208.48C782.643 208.48 770.229 205.587 759.403 199.8C748.576 194.013 739.896 186.08 733.363 176C726.829 165.733 723.003 153.88 721.883 140.44L747.083 138.76C748.389 148.653 751.189 157.053 755.483 163.96C759.963 170.867 765.656 176.093 772.563 179.64C779.656 183.187 787.869 184.96 797.203 184.96C806.536 184.96 814.376 183.84 820.723 181.6C827.069 179.173 831.829 175.72 835.003 171.24C838.363 166.573 840.043 161.067 840.043 154.72C840.043 148.373 838.549 142.867 835.563 138.2C832.763 133.347 827.349 128.867 819.323 124.76C811.483 120.653 799.816 116.453 784.323 112.16C770.509 108.24 759.309 103.947 750.722 99.28C742.323 94.6133 736.163 88.92 732.243 82.2C728.509 75.48 726.643 67.1733 726.643 57.28C726.643 46.08 729.256 36.28 734.483 27.88C739.896 19.2933 747.549 12.6667 757.443 7.99999C767.336 3.14666 779.096 0.719997 792.723 0.719997C806.349 0.719997 818.016 3.51999 827.723 9.11999C837.429 14.5333 845.083 22 850.683 31.52C856.469 41.04 860.109 51.8667 861.603 64L836.403 65.68C835.283 57.6533 832.949 50.56 829.403 44.4C825.856 38.0533 821.003 33.1067 814.843 29.56C808.683 26.0133 801.123 24.24 792.163 24.24C779.843 24.24 770.043 27.2267 762.763 33.2C755.483 38.9867 751.843 46.64 751.843 56.16C751.843 62.32 753.149 67.4533 755.763 71.56C758.563 75.48 763.416 79.0267 770.323 82.2C777.229 85.1867 786.936 88.4533 799.443 92C815.683 96.48 828.563 101.52 838.083 107.12C847.789 112.72 854.696 119.44 858.803 127.28C863.096 134.933 865.243 144.267 865.243 155.28C865.243 165.733 862.349 174.973 856.563 183C850.776 191.027 842.749 197.28 832.483 201.76C822.216 206.24 810.269 208.48 796.643 208.48ZM899.853 246V55.6H921.693L922.253 89.2L918.893 87.52C922.626 75.9467 928.786 67.1733 937.373 61.2C946.146 55.2267 956.226 52.24 967.613 52.24C982.36 52.24 994.4 55.88 1003.73 63.16C1013.25 70.44 1020.25 79.96 1024.73 91.72C1029.21 103.48 1031.45 116.173 1031.45 129.8C1031.45 143.427 1029.21 156.12 1024.73 167.88C1020.25 179.64 1013.25 189.16 1003.73 196.44C994.4 203.72 982.36 207.36 967.613 207.36C959.96 207.36 952.773 206.053 946.053 203.44C939.52 200.827 933.92 197.187 929.253 192.52C924.773 187.853 921.693 182.347 920.013 176L923.373 172.08V246H899.853ZM965.373 184.96C978.253 184.96 988.333 180.107 995.613 170.4C1003.08 160.693 1006.81 147.16 1006.81 129.8C1006.81 112.44 1003.08 98.9067 995.613 89.2C988.333 79.4933 978.253 74.64 965.373 74.64C956.786 74.64 949.32 76.6933 942.973 80.8C936.813 84.9067 931.96 91.0667 928.413 99.28C925.053 107.493 923.373 117.667 923.373 129.8C923.373 141.933 925.053 152.107 928.413 160.32C931.773 168.533 936.626 174.693 942.973 178.8C949.32 182.907 956.786 184.96 965.373 184.96ZM1109.18 204V55.6H1128.78L1131.02 93.12L1128.78 92.56C1130.65 79.8667 1134.66 70.5333 1140.82 64.56C1147.17 58.5867 1155.57 55.6 1166.02 55.6H1196.54V76.88H1166.3C1159.02 76.88 1152.86 78.3733 1147.82 81.36C1142.97 84.16 1139.24 88.36 1136.62 93.96C1134.01 99.3733 1132.7 106.187 1132.7 114.4V204H1109.18ZM1070.54 204V183.28H1179.74V204H1070.54ZM1070.54 76.32V55.6H1122.06V76.32H1070.54ZM1299.75 207.36C1285.75 207.36 1273.62 204.187 1263.35 197.84C1253.27 191.493 1245.43 182.533 1239.83 170.96C1234.42 159.2 1231.71 145.48 1231.71 129.8C1231.71 114.12 1234.42 100.493 1239.83 88.92C1245.43 77.3467 1253.18 68.3867 1263.07 62.04C1273.15 55.5067 1285.01 52.24 1298.63 52.24C1311.51 52.24 1322.9 55.32 1332.79 61.48C1342.69 67.4533 1350.43 76.2267 1356.03 87.8C1361.63 99.3733 1364.43 113.467 1364.43 130.08V137.08H1256.35C1257.29 152.947 1261.49 164.893 1268.95 172.92C1276.61 180.947 1286.87 184.96 1299.75 184.96C1309.46 184.96 1317.39 182.72 1323.55 178.24C1329.9 173.573 1334.29 167.507 1336.71 160.04L1361.91 162C1357.99 175.253 1350.53 186.173 1339.51 194.76C1328.69 203.16 1315.43 207.36 1299.75 207.36ZM1256.35 116.36H1338.67C1337.55 101.987 1333.35 91.44 1326.07 84.72C1318.79 78 1309.65 74.64 1298.63 74.64C1287.25 74.64 1277.82 78.1867 1270.35 85.28C1263.07 92.1867 1258.41 102.547 1256.35 116.36ZM1404.65 204V55.6H1426.21L1427.05 93.4L1424.25 90.88C1426.11 82.1067 1429.47 74.92 1434.33 69.32C1439.37 63.5333 1445.34 59.24 1452.25 56.44C1459.15 53.64 1466.43 52.24 1474.09 52.24C1485.47 52.24 1494.9 54.76 1502.37 59.8C1510.02 64.84 1515.81 71.6533 1519.73 80.24C1523.65 88.64 1525.61 98.0667 1525.61 108.52V204H1502.09V115.24C1502.09 101.427 1499.38 90.9733 1493.97 83.88C1488.55 76.6 1480.25 72.96 1469.05 72.96C1461.39 72.96 1454.49 74.64 1448.33 78C1442.17 81.1733 1437.22 85.9333 1433.49 92.28C1429.94 98.44 1428.17 106.093 1428.17 115.24V204H1404.65Z" fill="black"/>
<path d="M103 5.00586C154.519 5.5757 196.118 50.1261 196.118 105C196.118 159.874 154.519 204.422 103 204.992V205H61V170H131V40H61V5H103V5.00586Z" fill="black"/>
<rect x="61" y="87" width="35" height="36" fill="black"/>
<rect x="2" y="123" width="35" height="36" fill="black"/>
<rect x="2" y="51" width="35" height="36" fill="black"/>
</g>
<defs>
<clipPath id="clip0_42_42">
<rect width="1526" height="247" fill="white"/>
</clipPath>
</defs>
</svg>
